<svg width="94" height="98" viewBox="0 0 94 98" fill="none" xmlns="http://www.w3.org/2000/svg">
<path d="M83.986 69.6305C90.4632 59.1216 92.6752 48.2864 89.8699 40.0207L89.206 38.0653C90.3678 29.2622 90.1254 18.2265 88.3688 4.91684L88.1235 3.0625L86.2861 3.30597C75.6803 4.72697 65.6737 9.27172 58.1052 14.4366C54.6742 13.6955 50.9788 13.302 46.997 13.302C43.0182 13.302 39.3199 13.6955 35.8889 14.4366C28.3234 9.27172 18.3197 4.72697 7.71238 3.30597L5.87498 3.0625L5.6297 4.91531C3.87454 18.228 3.62779 29.2744 4.7881 38.0791L4.1301 40.0207C1.32479 48.2864 3.5382 59.1246 10.0139 69.6336C10.384 74.6377 10.4707 79.8654 8.6612 83.8007C6.98535 87.4497 14.5494 91.9745 18.1552 91.9745C21.6655 91.9745 24.5237 90.2304 26.5946 87.4849C33.3024 92.2195 40.4729 94.9375 47 94.9375C53.5271 94.9375 60.6975 92.2195 67.4068 87.4849C69.4792 90.2304 72.3359 91.9745 75.8477 91.9745C79.452 91.9745 87.0146 87.4497 85.3417 83.8007C83.5307 79.8608 83.6174 74.6331 83.986 69.6305ZM84.9305 7.29794C86.129 17.0428 86.4785 25.6147 86.0173 32.8208C85.9733 31.7995 85.797 30.7797 85.4049 29.8287L86.032 29.7353L83.5366 25.4279C84.0389 22.5078 84.4149 17.4287 82.7449 11.391C76.9698 13.7904 72.5063 17.9692 70.8378 19.6781C68.4408 18.0626 65.7897 16.758 62.9036 15.7535C69.159 11.9315 76.8141 8.68066 84.9305 7.29794ZM9.06657 7.29794C17.1844 8.68066 24.8395 11.9315 31.0964 15.755C28.2073 16.7595 25.5577 18.0642 23.1607 19.6796C21.4907 17.9723 17.0287 13.792 11.2521 11.3925C9.58504 17.4302 9.96104 22.5063 10.4619 25.4295L7.96648 29.7369L8.59217 29.8303C8.20001 30.7827 8.02229 31.801 7.9797 32.8223C7.51998 25.6147 7.86807 17.0413 9.06657 7.29794ZM47 91.973C40.724 91.973 34.1514 89.2612 28.1442 84.9568C32.6018 76.0174 30.7864 61.0525 19.784 55.4925C10.1299 50.6109 9.05335 55.1036 9.4411 62.279C6.06004 54.8708 4.80867 47.2559 6.94129 40.9717L8.65385 43.3252C8.65385 43.3252 8.3366 42.3008 8.2426 41.0421C9.9302 41.9853 11.6031 42.8995 11.6031 42.8995C11.6031 42.8995 10.7057 40.0774 11.5311 38.1465L12.806 39.1602C12.806 39.1602 9.78479 32.5069 12.5945 29.9558C13.7313 33.7671 15.0767 33.8253 15.1531 33.8253H15.1575C15.1575 33.8253 13.4567 30.8853 14.7815 29.6511C15.3234 30.5362 15.8272 30.8378 16.2326 30.8378C16.8436 30.8378 17.2343 30.161 17.202 29.7614C17.13 28.8778 17.4693 27.6314 13.4993 27.0434C14.0471 26.1002 15.2706 25.8199 16.5396 25.8199C18.4328 25.8199 20.4259 26.4477 20.4259 26.4477C20.4259 26.4477 20.2981 24.4587 17.6749 24.4587L17.5163 24.4617C18.3403 23.226 19.549 22.8646 20.6756 22.8646C22.2413 22.8646 23.6513 23.5598 23.6513 23.5598L23.6424 23.5858C24.7093 22.7824 25.8266 22.0545 26.9868 21.4069C27.9062 23.5093 29.1503 24.4663 30.6704 27.2746C32.8442 23.2658 34.4348 20.9368 35.3278 18.1254C36.6839 17.7821 38.0555 17.5087 39.4374 17.3062C40.5874 22.4788 43.2282 26.4814 46.9956 33.4241C50.8187 26.3758 53.4228 22.4343 54.5552 17.3031C55.9931 17.5114 57.3547 17.7947 58.6677 18.1254C59.5695 20.9674 61.1719 23.3179 63.3193 27.2746C64.8556 24.4372 66.0996 23.4894 67.0117 21.4069C68.1867 22.076 69.3162 22.7881 70.356 23.5858L70.3472 23.5598C70.3472 23.5598 71.7558 22.8646 73.3229 22.8646C74.4509 22.8646 75.6582 23.226 76.4807 24.4617L76.3221 24.4587C73.7004 24.4587 73.5726 26.4477 73.5726 26.4477C73.5726 26.4477 75.5657 25.8169 77.4589 25.8199C78.7279 25.8199 79.9514 26.1002 80.4992 27.0434C76.5292 27.6314 76.867 28.8778 76.795 29.7614C76.7642 30.161 77.1549 30.8378 77.7629 30.8378C78.1713 30.8378 78.6765 30.5362 79.2185 29.6511C80.5418 30.8838 78.841 33.8253 78.841 33.8253H78.8439C78.9218 33.8253 80.2672 33.7671 81.4025 29.9558C84.2137 32.5069 81.1895 39.1602 81.1895 39.1602L82.4644 38.1465C83.2913 40.0774 82.3924 42.8995 82.3924 42.8995C82.3924 42.8995 84.0756 42.019 85.7574 41.1217C85.6531 42.3437 85.3476 43.3252 85.3476 43.3252L87.0572 40.9717C89.1884 47.2559 87.9399 54.8708 84.5574 62.279C84.9437 55.1005 83.8656 50.6124 74.213 55.4925C63.2135 61.0525 61.3967 76.0143 65.8543 84.9568C59.8486 89.2581 53.2745 91.973 47 91.973Z" fill="black"/>
<path d="M47 52.8343C48.1045 52.8343 49.4778 52.4101 50.9157 51.0611C53.1937 48.925 53.8561 46.452 52.9984 45.4521C51.7969 44.051 48.1045 43.9438 47 43.9438C45.8984 43.9438 42.2031 44.051 41.0016 45.4521C40.1468 46.4505 40.8077 48.925 43.0887 51.0611C44.5251 52.4101 45.8984 52.8343 47 52.8343Z" fill="black"/>
<path d="M65.5562 55.2414C67.7402 55.6058 70.052 55.5706 72.2581 54.5738C72.8059 54.3288 73.3464 54.0149 73.8693 53.6106C74.1337 53.4008 74.3834 53.1742 74.6389 52.8695C74.708 52.7914 74.7623 52.7194 74.8431 52.6031L74.9724 52.3933L75.0575 52.2233L75.2661 51.7241C75.7743 50.4149 76.1503 49.0842 76.4426 47.7015C76.9963 44.9407 77.1476 41.9563 76.563 39.0576C75.9507 36.3112 74.6641 33.7778 72.8294 31.7061C71.0875 29.7782 68.6597 28.4797 66.2524 28.8381C65.6548 28.914 65.0683 29.0657 64.506 29.2898C63.9773 29.5011 63.4206 29.7675 62.9124 30.1243C61.8616 30.8437 60.9601 31.7758 60.2614 32.8652C58.8616 35.1208 58.07 37.8403 57.9672 40.5598C58.5077 37.9459 59.4814 35.4638 60.984 33.6921C61.7125 32.7948 62.557 32.0797 63.4809 31.605C63.9406 31.3585 64.412 31.1763 64.9188 31.0231C65.387 30.8863 65.8692 30.8077 66.3552 30.7889C68.2939 30.7215 70.1402 31.7597 71.5634 33.4731C72.9807 35.1652 74.1543 37.3809 74.6257 39.7038C75.1383 42.0635 75.0429 44.6528 74.5964 47.1426C74.3869 48.3816 74.0783 49.6001 73.674 50.7855L73.5227 51.1958C73.5162 51.2065 73.5099 51.2172 73.5036 51.228L73.4316 51.3321C73.2797 51.5206 73.1131 51.6957 72.9337 51.8558C72.5503 52.2036 72.1294 52.5037 71.6794 52.7501C69.8508 53.7454 67.7358 54.0807 65.6384 54.0087C63.522 53.9995 61.404 53.4912 59.289 52.9108C61.25 54.0208 63.3641 54.807 65.5562 55.2414Z" fill="black"/>
<path d="M65.2007 50.7534C66.8393 50.7534 68.1676 47.4366 68.1676 43.3452C68.1676 39.2538 66.8393 35.937 65.2007 35.937C63.5622 35.937 62.2339 39.2538 62.2339 43.3452C62.2339 47.4366 63.5622 50.7534 65.2007 50.7534Z" fill="black"/>
<path d="M22.3221 52.7501C21.8717 52.5044 21.4507 52.2043 21.0678 51.8558C20.8888 51.6957 20.7228 51.5206 20.5713 51.3321L20.4994 51.228C20.5023 51.2311 20.5052 51.2402 20.5023 51.2402C20.4955 51.2251 20.4882 51.2103 20.4803 51.1958L20.329 50.7855C19.9324 49.637 19.6225 48.3906 19.4081 47.1426C18.9616 44.6543 18.8676 42.0635 19.3787 39.7038C19.8516 37.3809 21.0237 35.1652 22.4396 33.4731C23.8628 31.7597 25.709 30.7215 27.6492 30.7889C28.1237 30.8134 28.6362 30.8838 29.0857 31.0231C29.5909 31.1763 30.0624 31.3585 30.5221 31.605C31.4445 32.0797 32.292 32.7948 33.0205 33.6921C34.5215 35.4638 35.4953 37.9459 36.0358 40.5598C35.9345 37.8403 35.1443 35.1208 33.7431 32.8652C33.0441 31.775 32.1414 30.8427 31.0891 30.1243C30.5906 29.7837 30.0564 29.5037 29.4969 29.2898C28.9347 29.0655 28.3482 28.9138 27.7506 28.8381C25.3462 28.4797 22.9155 29.7782 21.175 31.7061C19.3408 33.7782 18.0543 36.3114 17.4414 39.0576C16.8539 41.9563 17.0081 44.9391 17.5619 47.6985C17.8541 49.0842 18.2301 50.4149 18.7369 51.7241L18.9454 52.2233L19.0306 52.3933L19.1599 52.6031C19.2406 52.7194 19.295 52.7914 19.3626 52.8695C19.6181 53.1742 19.8693 53.4024 20.1292 53.6106C20.6536 54.0149 21.1956 54.3288 21.7419 54.5738C23.948 55.5691 26.2583 55.6058 28.4424 55.2414C30.6351 54.8066 32.7501 54.021 34.7125 52.9124C32.5989 53.4927 30.4825 54.0011 28.3631 54.0103C26.2642 54.0807 24.1477 53.7469 22.3221 52.7501Z" fill="black"/>
<path d="M28.8036 50.7564C30.443 50.7564 31.772 47.439 31.772 43.3467C31.772 39.2545 30.443 35.937 28.8036 35.937C27.1643 35.937 25.8353 39.2545 25.8353 43.3467C25.8353 47.439 27.1643 50.7564 28.8036 50.7564Z" fill="black"/>
<path d="M46.9589 56.4114C40.4626 56.4114 35.1295 63.7063 35.1295 72.7115C35.1295 81.7138 40.4626 89.0117 46.9589 89.0117C53.5389 89.0117 58.8704 81.7138 58.8704 72.7115C58.8704 63.7063 53.5389 56.4114 46.9589 56.4114ZM46.9589 86.9613C43.9597 86.9613 41.3791 85.0059 39.9617 82.1042C39.9617 82.1042 41.4628 80.5668 46.9589 80.5668C52.4579 80.5668 54.0397 82.1042 54.0397 82.1042C52.6238 85.0059 50.0388 86.9613 46.9589 86.9613Z" fill="black"/>
</svg>
