<svg width="28" height="28" viewBox="0 0 28 28" fill="none" xmlns="http://www.w3.org/2000/svg">
<path fill-rule="evenodd" clip-rule="evenodd" d="M22 20.6667V11.3334L15.3333 4.66675H8.66667C7.95942 4.66675 7.28115 4.9477 6.78105 5.4478C6.28095 5.94789 6 6.62617 6 7.33341V20.6667C6 21.374 6.28095 22.0523 6.78105 22.5524C7.28115 23.0525 7.95942 23.3334 8.66667 23.3334H19.3333C20.0406 23.3334 20.7189 23.0525 21.219 22.5524C21.719 22.0523 22 21.374 22 20.6667V20.6667Z" stroke="black" stroke-width="1.33333" stroke-linecap="round" stroke-linejoin="round"/>
<path d="M15.3334 4.66675V8.66675C15.3334 9.37399 15.6143 10.0523 16.1144 10.5524C16.6145 11.0525 17.2928 11.3334 18 11.3334H22" stroke="black" stroke-width="1.33333" stroke-linecap="round" stroke-linejoin="round"/>
<path d="M8.96484 14.8379H7.83984V16H7.25391V13.1562H9.10547V13.6309H7.83984V14.3652H8.96484V14.8379ZM10.5664 16C10.5404 15.9492 10.5215 15.8861 10.5098 15.8105C10.373 15.9629 10.1953 16.0391 9.97656 16.0391C9.76953 16.0391 9.59766 15.9792 9.46094 15.8594C9.32552 15.7396 9.25781 15.5885 9.25781 15.4062C9.25781 15.1823 9.34049 15.0104 9.50586 14.8906C9.67253 14.7708 9.91276 14.7103 10.2266 14.709H10.4863V14.5879C10.4863 14.4902 10.4609 14.4121 10.4102 14.3535C10.3607 14.2949 10.2819 14.2656 10.1738 14.2656C10.0788 14.2656 10.0039 14.2884 9.94922 14.334C9.89583 14.3796 9.86914 14.4421 9.86914 14.5215H9.30469C9.30469 14.3991 9.34245 14.2858 9.41797 14.1816C9.49349 14.0775 9.60026 13.9961 9.73828 13.9375C9.8763 13.8776 10.0312 13.8477 10.2031 13.8477C10.4635 13.8477 10.6699 13.9134 10.8223 14.0449C10.9759 14.1751 11.0527 14.3587 11.0527 14.5957V15.5117C11.054 15.7122 11.082 15.8639 11.1367 15.9668V16H10.5664ZM10.0996 15.6074C10.1829 15.6074 10.2598 15.5892 10.3301 15.5527C10.4004 15.515 10.4525 15.4648 10.4863 15.4023V15.0391H10.2754C9.99284 15.0391 9.84245 15.1367 9.82422 15.332L9.82227 15.3652C9.82227 15.4355 9.84701 15.4935 9.89648 15.5391C9.94596 15.5846 10.0137 15.6074 10.0996 15.6074ZM12.2539 15.1523L12.0508 15.3555V16H11.4863V13H12.0508V14.6621L12.1602 14.5215L12.7012 13.8867H13.3789L12.6152 14.7676L13.4453 16H12.7969L12.2539 15.1523ZM14.2988 13.3672V13.8867H14.6602V14.3008H14.2988V15.3555C14.2988 15.4336 14.3138 15.4896 14.3438 15.5234C14.3737 15.5573 14.431 15.5742 14.5156 15.5742C14.5781 15.5742 14.6335 15.5697 14.6816 15.5605V15.9883C14.571 16.0221 14.457 16.0391 14.3398 16.0391C13.944 16.0391 13.7422 15.8392 13.7344 15.4395V14.3008H13.4258V13.8867H13.7344V13.3672H14.2988ZM16.2402 15.7852C16.1009 15.9544 15.9082 16.0391 15.6621 16.0391C15.4355 16.0391 15.2624 15.974 15.1426 15.8438C15.0241 15.7135 14.9635 15.5228 14.9609 15.2715V13.8867H15.5254V15.252C15.5254 15.472 15.6257 15.582 15.8262 15.582C16.0176 15.582 16.1491 15.5156 16.2207 15.3828V13.8867H16.7871V16H16.2559L16.2402 15.7852ZM18.4004 14.416C18.3236 14.4056 18.2559 14.4004 18.1973 14.4004C17.9837 14.4004 17.8438 14.4727 17.7773 14.6172V16H17.2129V13.8867H17.7461L17.7617 14.1387C17.875 13.9447 18.0319 13.8477 18.2324 13.8477C18.2949 13.8477 18.3535 13.8561 18.4082 13.873L18.4004 14.416ZM19.8398 16C19.8138 15.9492 19.7949 15.8861 19.7832 15.8105C19.6465 15.9629 19.4688 16.0391 19.25 16.0391C19.043 16.0391 18.8711 15.9792 18.7344 15.8594C18.599 15.7396 18.5312 15.5885 18.5312 15.4062C18.5312 15.1823 18.6139 15.0104 18.7793 14.8906C18.946 14.7708 19.1862 14.7103 19.5 14.709H19.7598V14.5879C19.7598 14.4902 19.7344 14.4121 19.6836 14.3535C19.6341 14.2949 19.5553 14.2656 19.4473 14.2656C19.3522 14.2656 19.2773 14.2884 19.2227 14.334C19.1693 14.3796 19.1426 14.4421 19.1426 14.5215H18.5781C18.5781 14.3991 18.6159 14.2858 18.6914 14.1816C18.7669 14.0775 18.8737 13.9961 19.0117 13.9375C19.1497 13.8776 19.3047 13.8477 19.4766 13.8477C19.737 13.8477 19.9434 13.9134 20.0957 14.0449C20.2493 14.1751 20.3262 14.3587 20.3262 14.5957V15.5117C20.3275 15.7122 20.3555 15.8639 20.4102 15.9668V16H19.8398ZM19.373 15.6074C19.4564 15.6074 19.5332 15.5892 19.6035 15.5527C19.6738 15.515 19.7259 15.4648 19.7598 15.4023V15.0391H19.5488C19.2663 15.0391 19.1159 15.1367 19.0977 15.332L19.0957 15.3652C19.0957 15.4355 19.1204 15.4935 19.1699 15.5391C19.2194 15.5846 19.2871 15.6074 19.373 15.6074Z" fill="black"/>
</svg>
