<svg width="28" height="28" viewBox="0 0 28 28" fill="none" xmlns="http://www.w3.org/2000/svg">
<rect width="28" height="28" rx="3" fill="#53B0D8"/>
<path d="M5.17871 14.4443C5.17871 14.9326 5.06738 15.3242 4.84473 15.6191C4.62402 15.9121 4.3252 16.0586 3.94824 16.0586C3.62793 16.0586 3.36914 15.9473 3.17188 15.7246V17.2188H2.3252V12.8301H3.11035L3.13965 13.1406C3.34473 12.8945 3.6123 12.7715 3.94238 12.7715C4.33301 12.7715 4.63672 12.916 4.85352 13.2051C5.07031 13.4941 5.17871 13.8926 5.17871 14.4004V14.4443ZM4.33203 14.3828C4.33203 14.0879 4.2793 13.8604 4.17383 13.7002C4.07031 13.54 3.91895 13.46 3.71973 13.46C3.4541 13.46 3.27148 13.5615 3.17188 13.7646V15.0625C3.27539 15.2715 3.45996 15.376 3.72559 15.376C4.12988 15.376 4.33203 15.0449 4.33203 14.3828ZM5.57422 14.3857C5.57422 14.0713 5.63477 13.791 5.75586 13.5449C5.87695 13.2988 6.05078 13.1084 6.27734 12.9736C6.50586 12.8389 6.77051 12.7715 7.07129 12.7715C7.49902 12.7715 7.84766 12.9023 8.11719 13.1641C8.38867 13.4258 8.54004 13.7812 8.57129 14.2305L8.57715 14.4473C8.57715 14.9336 8.44141 15.3242 8.16992 15.6191C7.89844 15.9121 7.53418 16.0586 7.07715 16.0586C6.62012 16.0586 6.25488 15.9121 5.98145 15.6191C5.70996 15.3262 5.57422 14.9277 5.57422 14.4238V14.3857ZM6.4209 14.4473C6.4209 14.748 6.47754 14.9785 6.59082 15.1387C6.7041 15.2969 6.86621 15.376 7.07715 15.376C7.28223 15.376 7.44238 15.2979 7.55762 15.1416C7.67285 14.9834 7.73047 14.7314 7.73047 14.3857C7.73047 14.0908 7.67285 13.8623 7.55762 13.7002C7.44238 13.5381 7.28027 13.457 7.07129 13.457C6.86426 13.457 6.7041 13.5381 6.59082 13.7002C6.47754 13.8604 6.4209 14.1094 6.4209 14.4473ZM10.8154 15.124C10.8154 15.0205 10.7637 14.9395 10.6602 14.8809C10.5586 14.8203 10.3945 14.7666 10.168 14.7197C9.41406 14.5615 9.03711 14.2412 9.03711 13.7588C9.03711 13.4775 9.15332 13.2432 9.38574 13.0557C9.62012 12.8662 9.92578 12.7715 10.3027 12.7715C10.7051 12.7715 11.0264 12.8662 11.2666 13.0557C11.5088 13.2451 11.6299 13.4912 11.6299 13.7939H10.7832C10.7832 13.6729 10.7441 13.5732 10.666 13.4951C10.5879 13.415 10.4658 13.375 10.2998 13.375C10.1572 13.375 10.0469 13.4072 9.96875 13.4717C9.89062 13.5361 9.85156 13.6182 9.85156 13.7178C9.85156 13.8115 9.89551 13.8877 9.9834 13.9463C10.0732 14.0029 10.2236 14.0527 10.4346 14.0957C10.6455 14.1367 10.8232 14.1836 10.9678 14.2363C11.415 14.4004 11.6387 14.6846 11.6387 15.0889C11.6387 15.3779 11.5146 15.6123 11.2666 15.792C11.0186 15.9697 10.6982 16.0586 10.3057 16.0586C10.04 16.0586 9.80371 16.0117 9.59668 15.918C9.3916 15.8223 9.23047 15.6924 9.11328 15.5283C8.99609 15.3623 8.9375 15.1836 8.9375 14.9922H9.74023C9.74805 15.1426 9.80371 15.2578 9.90723 15.3379C10.0107 15.418 10.1494 15.458 10.3232 15.458C10.4854 15.458 10.6074 15.4277 10.6895 15.3672C10.7734 15.3047 10.8154 15.2236 10.8154 15.124ZM13.2002 12.0508V12.8301H13.7422V13.4512H13.2002V15.0332C13.2002 15.1504 13.2227 15.2344 13.2676 15.2852C13.3125 15.3359 13.3984 15.3613 13.5254 15.3613C13.6191 15.3613 13.7021 15.3545 13.7744 15.3408V15.9824C13.6084 16.0332 13.4375 16.0586 13.2617 16.0586C12.668 16.0586 12.3652 15.7588 12.3535 15.1592V13.4512H11.8906V12.8301H12.3535V12.0508H13.2002ZM14.9932 12.8301L15.0195 13.1963C15.2461 12.9131 15.5498 12.7715 15.9307 12.7715C16.2666 12.7715 16.5166 12.8701 16.6807 13.0674C16.8447 13.2646 16.9287 13.5596 16.9326 13.9521V16H16.0859V13.9727C16.0859 13.793 16.0469 13.6631 15.9688 13.583C15.8906 13.501 15.7607 13.46 15.5791 13.46C15.3408 13.46 15.1621 13.5615 15.043 13.7646V16H14.1963V12.8301H14.9932ZM17.4453 14.3857C17.4453 14.0713 17.5059 13.791 17.627 13.5449C17.748 13.2988 17.9219 13.1084 18.1484 12.9736C18.377 12.8389 18.6416 12.7715 18.9424 12.7715C19.3701 12.7715 19.7188 12.9023 19.9883 13.1641C20.2598 13.4258 20.4111 13.7812 20.4424 14.2305L20.4482 14.4473C20.4482 14.9336 20.3125 15.3242 20.041 15.6191C19.7695 15.9121 19.4053 16.0586 18.9482 16.0586C18.4912 16.0586 18.126 15.9121 17.8525 15.6191C17.5811 15.3262 17.4453 14.9277 17.4453 14.4238V14.3857ZM18.292 14.4473C18.292 14.748 18.3486 14.9785 18.4619 15.1387C18.5752 15.2969 18.7373 15.376 18.9482 15.376C19.1533 15.376 19.3135 15.2979 19.4287 15.1416C19.5439 14.9834 19.6016 14.7314 19.6016 14.3857C19.6016 14.0908 19.5439 13.8623 19.4287 13.7002C19.3135 13.5381 19.1514 13.457 18.9424 13.457C18.7354 13.457 18.5752 13.5381 18.4619 13.7002C18.3486 13.8604 18.292 14.1094 18.292 14.4473ZM22.751 13.624C22.6357 13.6084 22.5342 13.6006 22.4463 13.6006C22.126 13.6006 21.916 13.709 21.8164 13.9258V16H20.9697V12.8301H21.7695L21.793 13.208C21.9629 12.917 22.1982 12.7715 22.499 12.7715C22.5928 12.7715 22.6807 12.7842 22.7627 12.8096L22.751 13.624ZM22.9707 14.3916C22.9707 13.8975 23.0811 13.5039 23.3018 13.2109C23.5244 12.918 23.8281 12.7715 24.2129 12.7715C24.5215 12.7715 24.7764 12.8867 24.9775 13.1172V11.5H25.8271V16H25.0625L25.0215 15.6631C24.8105 15.9268 24.5391 16.0586 24.207 16.0586C23.834 16.0586 23.5342 15.9121 23.3076 15.6191C23.083 15.3242 22.9707 14.915 22.9707 14.3916ZM23.8174 14.4531C23.8174 14.75 23.8691 14.9775 23.9727 15.1357C24.0762 15.2939 24.2266 15.373 24.4238 15.373C24.6855 15.373 24.8701 15.2627 24.9775 15.042V13.791C24.8721 13.5703 24.6895 13.46 24.4297 13.46C24.0215 13.46 23.8174 13.791 23.8174 14.4531Z" fill="white"/>
</svg>
